<svg xmlns="http://www.w3.org/2000/svg" width="430" height="430" style="width:100%;height:100%;transform:translate3d(0,0,0);content-visibility:visible" viewBox="0 0 430 430"><defs><path id="a" style="display:none"/><path id="b" style="display:none"/><path id="d" style="display:none"/><path id="e" style="display:none"/><path id="g" style="display:none"/><path id="i" style="display:none"/><path id="k" style="display:none"/><path id="m" fill="#FFC738" d="M88.78 172.95c31.682-13.594 53.324-39.683 70.68-69.47L-91.45-180.28a160.757 160.757 0 0 0-75.51 66.8L88.78 172.95z" style="display:block" transform="translate(214.99 215)"/><path id="o" style="display:none"/><path id="q" style="display:none"/><path id="s" style="display:none"/><path id="t" style="display:none"/><path id="u" style="display:none"/><mask id="N" mask-type="alpha"><use xmlns:ns1="http://www.w3.org/1999/xlink" ns1:href="#a"/></mask><mask id="M" mask-type="alpha"><use xmlns:ns2="http://www.w3.org/1999/xlink" ns2:href="#b"/></mask><mask id="L" mask-type="alpha"><g filter="url(#c)"><path fill="#fff" d="M0 0h430v430H0z" opacity="0"/><use xmlns:ns3="http://www.w3.org/1999/xlink" ns3:href="#d"/></g></mask><mask id="K" mask-type="alpha"><use xmlns:ns4="http://www.w3.org/1999/xlink" ns4:href="#e"/></mask><mask id="I" mask-type="alpha"><g filter="url(#f)"><path fill="#fff" d="M0 0h430v430H0z" opacity="0"/><use xmlns:ns5="http://www.w3.org/1999/xlink" ns5:href="#g"/></g></mask><mask id="H" mask-type="alpha"><g filter="url(#h)"><path fill="#fff" d="M0 0h430v430H0z" opacity="0"/><use xmlns:ns6="http://www.w3.org/1999/xlink" ns6:href="#i"/></g></mask><mask id="G" mask-type="alpha"><g filter="url(#j)"><path fill="#fff" d="M0 0h430v430H0z" opacity="0"/><use xmlns:ns7="http://www.w3.org/1999/xlink" ns7:href="#k"/></g></mask><mask id="F" mask-type="alpha"><g filter="url(#l)"><path fill="#fff" d="M0 0h430v430H0z" opacity="0"/><use xmlns:ns8="http://www.w3.org/1999/xlink" ns8:href="#m"/></g></mask><mask id="D" mask-type="alpha"><g filter="url(#n)"><path fill="#fff" d="M0 0h430v430H0z" opacity="0"/><use xmlns:ns9="http://www.w3.org/1999/xlink" ns9:href="#o"/></g></mask><mask id="C" mask-type="alpha"><g filter="url(#p)"><path fill="#fff" d="M0 0h430v430H0z" opacity="0"/><use xmlns:ns10="http://www.w3.org/1999/xlink" ns10:href="#q"/></g></mask><mask id="A" mask-type="alpha"><g filter="url(#r)"><path fill="#fff" d="M0 0h430v430H0z" opacity="0"/><use xmlns:ns11="http://www.w3.org/1999/xlink" ns11:href="#s"/></g></mask><mask id="z" mask-type="alpha"><use xmlns:ns12="http://www.w3.org/1999/xlink" ns12:href="#t"/></mask><mask id="y" mask-type="alpha"><use xmlns:ns13="http://www.w3.org/1999/xlink" ns13:href="#u"/></mask><filter id="c" width="100%" height="100%" x="0%" y="0%" filterUnits="objectBoundingBox"><feComponentTransfer in="SourceGraphic"><feFuncA tableValues="1.0 0.0" type="table"/></feComponentTransfer></filter><filter id="f" width="100%" height="100%" x="0%" y="0%" filterUnits="objectBoundingBox"><feComponentTransfer in="SourceGraphic"><feFuncA tableValues="1.0 0.0" type="table"/></feComponentTransfer></filter><filter id="h" width="100%" height="100%" x="0%" y="0%" filterUnits="objectBoundingBox"><feComponentTransfer in="SourceGraphic"><feFuncA tableValues="1.0 0.0" type="table"/></feComponentTransfer></filter><filter id="j" width="100%" height="100%" x="0%" y="0%" filterUnits="objectBoundingBox"><feComponentTransfer in="SourceGraphic"><feFuncA tableValues="1.0 0.0" type="table"/></feComponentTransfer></filter><filter id="l" width="100%" height="100%" x="0%" y="0%" filterUnits="objectBoundingBox"><feComponentTransfer in="SourceGraphic"><feFuncA tableValues="1.0 0.0" type="table"/></feComponentTransfer></filter><filter id="n" width="100%" height="100%" x="0%" y="0%" filterUnits="objectBoundingBox"><feComponentTransfer in="SourceGraphic"><feFuncA tableValues="1.0 0.0" type="table"/></feComponentTransfer></filter><filter id="p" width="100%" height="100%" x="0%" y="0%" filterUnits="objectBoundingBox"><feComponentTransfer in="SourceGraphic"><feFuncA tableValues="1.0 0.0" type="table"/></feComponentTransfer></filter><filter id="r" width="100%" height="100%" x="0%" y="0%" filterUnits="objectBoundingBox"><feComponentTransfer in="SourceGraphic"><feFuncA tableValues="1.0 0.0" type="table"/></feComponentTransfer></filter><clipPath id="v"><path d="M0 0h430v430H0z"/></clipPath><clipPath id="J"><path d="M0 0h430v430H0z"/></clipPath><clipPath id="E"><path d="M0 0h430v430H0z"/></clipPath><clipPath id="B"><path d="M0 0h430v430H0z"/></clipPath><clipPath id="w"><path d="M0 0h430v430H0z"/></clipPath><clipPath id="x"><path d="M0 0h430v430H0z"/></clipPath></defs><g clip-path="url(#v)"><g clip-path="url(#w)" style="display:none"><g clip-path="url(#x)" style="display:none"><path class="secondary" style="display:none"/><g fill="none" mask="url(#y)" style="display:none"><path class="secondary"/><path class="secondary" style="mix-blend-mode:multiply"/></g><g style="display:none"><path class="secondary"/><path class="secondary"/></g><g style="display:none"><path class="secondary"/><path class="secondary" style="mix-blend-mode:multiply"/></g><path fill="none" class="tertiary" style="display:none"/><path fill="none" class="quaternary" style="display:none"/></g><path fill="none" class="primary" style="display:none"/><path fill="none" class="primary" style="display:none"/><path fill="none" class="primary" style="display:none"/><path class="secondary" style="display:none"/><g fill="none" mask="url(#z)" style="display:none"><path class="secondary"/><path class="secondary" style="mix-blend-mode:multiply"/></g><path class="secondary" style="display:none"/><g mask="url(#A)" style="display:none"><path class="secondary"/><path class="secondary" style="mix-blend-mode:multiply"/></g><path fill="none" class="tertiary" style="display:none"/><path fill="none" class="tertiary" style="display:none"/><path fill="none" class="primary" style="display:none"/><path fill="none" class="primary" style="display:none"/><path fill="none" class="primary" style="display:none"/></g><g clip-path="url(#B)" style="display:none"><g style="display:none"><path class="secondary"/><path class="secondary" style="mix-blend-mode:multiply"/></g><path class="secondary" style="display:none"/><g mask="url(#C)" style="display:none"><path class="secondary"/><path class="secondary" style="mix-blend-mode:multiply"/></g><path fill="none" class="tertiary" style="display:none"/><path class="secondary" style="display:none"/><g mask="url(#D)" style="display:none"><path class="secondary"/><path class="secondary" style="mix-blend-mode:multiply"/></g><path fill="none" class="tertiary" style="display:none"/><path fill="none" class="primary" style="display:none"/><path fill="none" class="primary" style="display:none"/><path fill="none" class="primary" style="display:none"/><path fill="none" class="primary" style="display:none"/></g><g clip-path="url(#E)" style="display:block"><g style="display:none"><path class="secondary"/><path class="secondary" style="mix-blend-mode:multiply"/></g><path fill="#FFC738" d="M0-167.5c92.508 0 167.5 74.992 167.5 167.5S92.508 167.5 0 167.5-167.5 92.508-167.5 0-92.508-167.5 0-167.5z" class="secondary" style="display:block" transform="translate(214.5 214.5)"/><g fill="#FFC738" mask="url(#F)" style="display:block"><path d="M214.5 47C307.008 47 382 121.992 382 214.5S307.008 382 214.5 382 47 307.008 47 214.5 121.992 47 214.5 47z" class="secondary"/><path fill-opacity=".5" d="M0-167.5c92.508 0 167.5 74.992 167.5 167.5S92.508 167.5 0 167.5-167.5 92.508-167.5 0-92.508-167.5 0-167.5z" class="secondary" style="mix-blend-mode:multiply" transform="translate(214.5 214.5)"/></g><path fill="none" stroke="#B26836" stroke-linecap="round" stroke-linejoin="round" stroke-width="7" d="M214.5 343.5c71.245 0 129-57.755 129-129s-57.755-129-129-129-129 57.755-129 129 57.755 129 129 129z" class="tertiary" style="display:block"/><path class="secondary" style="display:none"/><g mask="url(#G)" style="display:none"><path class="secondary"/><path class="secondary" style="mix-blend-mode:multiply"/></g><path fill="none" class="tertiary" style="display:none"/><g style="display:none"><path class="secondary"/><path class="secondary" style="mix-blend-mode:multiply"/></g><path fill="none" stroke="#B26836" stroke-linecap="round" stroke-linejoin="round" stroke-width="7" d="M0 129c71.245 0 129-57.755 129-129S71.245-129 0-129-129-71.245-129 0-71.245 129 0 129z" class="tertiary" style="display:block" transform="translate(214.5 214.5)"/><path class="secondary" style="display:none"/><g mask="url(#H)" style="display:none"><path class="secondary"/><path class="secondary" style="mix-blend-mode:multiply"/></g><path fill="none" class="tertiary" style="display:none"/><path class="secondary" style="display:none"/><g mask="url(#I)" style="display:none"><path class="secondary"/><path class="secondary" style="mix-blend-mode:multiply"/></g><path fill="none" class="tertiary" style="display:none"/><path class="secondary" style="display:none"/><path fill="none" class="tertiary" style="display:none"/><path fill="none" stroke="#121331" stroke-linecap="round" stroke-linejoin="round" stroke-width="7" d="M0 167.5s0 0 0 0c-92.508 0-167.5-74.992-167.5-167.5S-92.508-167.5 0-167.5" class="primary" style="display:block" transform="translate(214.5 214.5)"/><path fill="none" class="primary" style="display:none"/><path fill="none" stroke="#121331" stroke-linecap="round" stroke-linejoin="round" stroke-width="7" d="M0-167.5c92.508 0 167.5 74.992 167.5 167.5S92.508 167.5 0 167.5-167.5 92.508-167.5 0-92.508-167.5 0-167.5z" class="primary" style="display:block" transform="translate(214.5 214.5)"/><path fill="none" stroke="#121331" stroke-linecap="round" stroke-width="7" d="M214 382h.5m-100-33h.5m-34.5-34h.5m-20-34h.5M50 248h.5m-4-34h.5m3-33h.5M61 147h.5m19-33h.5m33.5-34h.5m99-33h.5" class="primary" style="display:block"/><path fill="none" class="primary" style="display:none"/><path fill="none" class="primary" style="display:none"/><path fill="none" class="primary" style="display:none"/><path fill="none" class="primary" style="display:none"/></g><g clip-path="url(#J)" style="display:none"><path class="secondary" style="display:none"/><g fill="none" mask="url(#K)" style="display:none"><path class="secondary"/><path class="secondary" style="mix-blend-mode:multiply"/></g><path class="secondary" style="display:none"/><g mask="url(#L)" style="display:none"><path class="secondary"/><path class="secondary" style="mix-blend-mode:multiply"/></g><path fill="none" class="tertiary" style="display:none"/><g mask="url(#M)" style="display:none"><path class="secondary"/></g><path fill="none" class="primary" style="display:none"/><path fill="none" class="primary" style="display:none"/><path fill="none" class="primary" style="display:none"/><g mask="url(#N)" style="display:none"><path fill="none" class="primary"/></g><path fill="none" class="primary" style="display:none"/></g></g></svg>